<mxfile host="Electron" modified="2023-05-18T19:05:56.955Z" agent="Mozilla/5.0 (Windows NT 10.0; Win64; x64) AppleWebKit/537.36 (KHTML, like Gecko) draw.io/21.2.8 Chrome/112.0.5615.165 Electron/24.2.0 Safari/537.36" etag="D7pX4ajuhaIyw-pLc159" version="21.2.8" type="device">
  <diagram id="C5RBs43oDa-KdzZeNtuy" name="Page-1">
    <mxGraphModel dx="780" dy="504" grid="1" gridSize="10" guides="1" tooltips="1" connect="1" arrows="1" fold="1" page="1" pageScale="1" pageWidth="827" pageHeight="1169" math="0" shadow="0">
      <root>
        <mxCell id="WIyWlLk6GJQsqaUBKTNV-0" />
        <mxCell id="WIyWlLk6GJQsqaUBKTNV-1" parent="WIyWlLk6GJQsqaUBKTNV-0" />
        <mxCell id="WIyWlLk6GJQsqaUBKTNV-2" value="" style="rounded=0;html=1;jettySize=auto;orthogonalLoop=1;fontSize=11;endArrow=block;endFill=0;endSize=8;strokeWidth=1;shadow=0;labelBackgroundColor=none;edgeStyle=orthogonalEdgeStyle;" parent="WIyWlLk6GJQsqaUBKTNV-1" source="WIyWlLk6GJQsqaUBKTNV-3" target="WIyWlLk6GJQsqaUBKTNV-6" edge="1">
          <mxGeometry relative="1" as="geometry" />
        </mxCell>
        <mxCell id="WIyWlLk6GJQsqaUBKTNV-3" value="User authentication" style="rounded=1;whiteSpace=wrap;html=1;fontSize=12;glass=0;strokeWidth=1;shadow=0;" parent="WIyWlLk6GJQsqaUBKTNV-1" vertex="1">
          <mxGeometry x="480" y="30" width="130" height="40" as="geometry" />
        </mxCell>
        <mxCell id="WIyWlLk6GJQsqaUBKTNV-5" value="No" style="edgeStyle=orthogonalEdgeStyle;rounded=0;html=1;jettySize=auto;orthogonalLoop=1;fontSize=11;endArrow=block;endFill=0;endSize=8;strokeWidth=1;shadow=0;labelBackgroundColor=none;" parent="WIyWlLk6GJQsqaUBKTNV-1" source="WIyWlLk6GJQsqaUBKTNV-6" edge="1">
          <mxGeometry x="-0.5745" y="10" relative="1" as="geometry">
            <mxPoint as="offset" />
            <mxPoint x="705" y="80" as="targetPoint" />
          </mxGeometry>
        </mxCell>
        <mxCell id="fdkzu7bsHedq0IDlACjG-37" style="edgeStyle=orthogonalEdgeStyle;rounded=0;orthogonalLoop=1;jettySize=auto;html=1;fontSize=14;entryX=0.471;entryY=0.158;entryDx=0;entryDy=0;entryPerimeter=0;startArrow=none;" parent="WIyWlLk6GJQsqaUBKTNV-1" source="WIyWlLk6GJQsqaUBKTNV-6" target="fdkzu7bsHedq0IDlACjG-29" edge="1">
          <mxGeometry relative="1" as="geometry">
            <mxPoint x="490" y="150" as="sourcePoint" />
            <Array as="points">
              <mxPoint x="500" y="150" />
              <mxPoint x="500" y="210" />
              <mxPoint x="601" y="210" />
            </Array>
          </mxGeometry>
        </mxCell>
        <mxCell id="-oaz-7kIbjAqHyaPnMs6-5" style="edgeStyle=orthogonalEdgeStyle;rounded=0;orthogonalLoop=1;jettySize=auto;html=1;entryX=0.5;entryY=0;entryDx=0;entryDy=0;" parent="WIyWlLk6GJQsqaUBKTNV-1" source="WIyWlLk6GJQsqaUBKTNV-7" target="-oaz-7kIbjAqHyaPnMs6-1" edge="1">
          <mxGeometry relative="1" as="geometry">
            <Array as="points">
              <mxPoint x="770" y="55" />
              <mxPoint x="770" y="90" />
              <mxPoint x="765" y="90" />
            </Array>
          </mxGeometry>
        </mxCell>
        <mxCell id="WIyWlLk6GJQsqaUBKTNV-7" value="user unauthorized message" style="rounded=1;whiteSpace=wrap;html=1;fontSize=12;glass=0;strokeWidth=1;shadow=0;" parent="WIyWlLk6GJQsqaUBKTNV-1" vertex="1">
          <mxGeometry x="620" y="30" width="130" height="50" as="geometry" />
        </mxCell>
        <mxCell id="-oaz-7kIbjAqHyaPnMs6-1" value="App exit" style="rounded=1;whiteSpace=wrap;html=1;" parent="WIyWlLk6GJQsqaUBKTNV-1" vertex="1">
          <mxGeometry x="730" y="120" width="70" height="40" as="geometry" />
        </mxCell>
        <mxCell id="fdkzu7bsHedq0IDlACjG-1" style="edgeStyle=orthogonalEdgeStyle;rounded=0;orthogonalLoop=1;jettySize=auto;html=1;entryX=0.5;entryY=0;entryDx=0;entryDy=0;" parent="WIyWlLk6GJQsqaUBKTNV-1" target="-oaz-7kIbjAqHyaPnMs6-11" edge="1">
          <mxGeometry relative="1" as="geometry">
            <mxPoint x="290" y="130" as="sourcePoint" />
            <mxPoint x="280" y="240" as="targetPoint" />
            <Array as="points">
              <mxPoint x="300" y="130" />
              <mxPoint x="300" y="200" />
              <mxPoint x="400" y="200" />
            </Array>
          </mxGeometry>
        </mxCell>
        <mxCell id="-oaz-7kIbjAqHyaPnMs6-9" value="Yes" style="text;html=1;strokeColor=none;fillColor=none;align=center;verticalAlign=middle;whiteSpace=wrap;rounded=0;" parent="WIyWlLk6GJQsqaUBKTNV-1" vertex="1">
          <mxGeometry x="490" y="130" width="40" height="20" as="geometry" />
        </mxCell>
        <mxCell id="-oaz-7kIbjAqHyaPnMs6-11" value="Available Data ?" style="swimlane;fontStyle=0;childLayout=stackLayout;horizontal=1;startSize=20;horizontalStack=0;resizeParent=1;resizeParentMax=0;resizeLast=0;collapsible=1;marginBottom=0;rotation=0;" parent="WIyWlLk6GJQsqaUBKTNV-1" vertex="1">
          <mxGeometry x="320" y="240" width="140" height="254" as="geometry" />
        </mxCell>
        <mxCell id="fdkzu7bsHedq0IDlACjG-2" value="Lname" style="text;strokeColor=none;fillColor=none;align=left;verticalAlign=top;spacingLeft=4;spacingRight=4;overflow=hidden;rotatable=0;points=[[0,0.5],[1,0.5]];portConstraint=eastwest;rotation=0;" parent="-oaz-7kIbjAqHyaPnMs6-11" vertex="1">
          <mxGeometry y="20" width="140" height="26" as="geometry" />
        </mxCell>
        <object label="Fname" id="-oaz-7kIbjAqHyaPnMs6-12">
          <mxCell style="text;strokeColor=none;fillColor=none;align=left;verticalAlign=top;spacingLeft=4;spacingRight=4;overflow=hidden;rotatable=0;points=[[0,0.5],[1,0.5]];portConstraint=eastwest;rotation=0;" parent="-oaz-7kIbjAqHyaPnMs6-11" vertex="1">
            <mxGeometry y="46" width="140" height="26" as="geometry" />
          </mxCell>
        </object>
        <mxCell id="fdkzu7bsHedq0IDlACjG-8" value="Mname" style="text;strokeColor=none;fillColor=none;align=left;verticalAlign=top;spacingLeft=4;spacingRight=4;overflow=hidden;rotatable=0;points=[[0,0.5],[1,0.5]];portConstraint=eastwest;rotation=0;" parent="-oaz-7kIbjAqHyaPnMs6-11" vertex="1">
          <mxGeometry y="72" width="140" height="26" as="geometry" />
        </mxCell>
        <mxCell id="-oaz-7kIbjAqHyaPnMs6-14" value="DOB" style="text;strokeColor=none;fillColor=none;align=left;verticalAlign=top;spacingLeft=4;spacingRight=4;overflow=hidden;rotatable=0;points=[[0,0.5],[1,0.5]];portConstraint=eastwest;rotation=0;" parent="-oaz-7kIbjAqHyaPnMs6-11" vertex="1">
          <mxGeometry y="98" width="140" height="26" as="geometry" />
        </mxCell>
        <mxCell id="-oaz-7kIbjAqHyaPnMs6-15" value="SSN" style="text;strokeColor=none;fillColor=none;align=left;verticalAlign=top;spacingLeft=4;spacingRight=4;overflow=hidden;rotatable=0;points=[[0,0.5],[1,0.5]];portConstraint=eastwest;rotation=0;" parent="-oaz-7kIbjAqHyaPnMs6-11" vertex="1">
          <mxGeometry y="124" width="140" height="26" as="geometry" />
        </mxCell>
        <mxCell id="-oaz-7kIbjAqHyaPnMs6-16" value="Address Street" style="text;strokeColor=none;fillColor=none;align=left;verticalAlign=top;spacingLeft=4;spacingRight=4;overflow=hidden;rotatable=0;points=[[0,0.5],[1,0.5]];portConstraint=eastwest;rotation=0;" parent="-oaz-7kIbjAqHyaPnMs6-11" vertex="1">
          <mxGeometry y="150" width="140" height="26" as="geometry" />
        </mxCell>
        <mxCell id="-oaz-7kIbjAqHyaPnMs6-17" value="Address Town" style="text;strokeColor=none;fillColor=none;align=left;verticalAlign=top;spacingLeft=4;spacingRight=4;overflow=hidden;rotatable=0;points=[[0,0.5],[1,0.5]];portConstraint=eastwest;rotation=0;" parent="-oaz-7kIbjAqHyaPnMs6-11" vertex="1">
          <mxGeometry y="176" width="140" height="26" as="geometry" />
        </mxCell>
        <mxCell id="-oaz-7kIbjAqHyaPnMs6-18" value="Address zip" style="text;strokeColor=none;fillColor=none;align=left;verticalAlign=top;spacingLeft=4;spacingRight=4;overflow=hidden;rotatable=0;points=[[0,0.5],[1,0.5]];portConstraint=eastwest;rotation=0;" parent="-oaz-7kIbjAqHyaPnMs6-11" vertex="1">
          <mxGeometry y="202" width="140" height="26" as="geometry" />
        </mxCell>
        <mxCell id="-oaz-7kIbjAqHyaPnMs6-19" value="Address State" style="text;strokeColor=none;fillColor=none;align=left;verticalAlign=top;spacingLeft=4;spacingRight=4;overflow=hidden;rotatable=0;points=[[0,0.5],[1,0.5]];portConstraint=eastwest;rotation=0;" parent="-oaz-7kIbjAqHyaPnMs6-11" vertex="1">
          <mxGeometry y="228" width="140" height="26" as="geometry" />
        </mxCell>
        <mxCell id="fdkzu7bsHedq0IDlACjG-12" style="edgeStyle=orthogonalEdgeStyle;rounded=0;orthogonalLoop=1;jettySize=auto;html=1;entryX=0.003;entryY=0.655;entryDx=0;entryDy=0;entryPerimeter=0;fontSize=14;" parent="WIyWlLk6GJQsqaUBKTNV-1" source="QR11iQUeeUO_pYaZ8578-2" target="fdkzu7bsHedq0IDlACjG-3" edge="1">
          <mxGeometry relative="1" as="geometry" />
        </mxCell>
        <mxCell id="QR11iQUeeUO_pYaZ8578-2" value="Display absent data message" style="shape=parallelogram;perimeter=parallelogramPerimeter;whiteSpace=wrap;html=1;fixedSize=1;" parent="WIyWlLk6GJQsqaUBKTNV-1" vertex="1">
          <mxGeometry x="90" y="190" width="140" height="50" as="geometry" />
        </mxCell>
        <mxCell id="fdkzu7bsHedq0IDlACjG-3" value="&lt;font style=&quot;font-size: 14px;&quot;&gt;User Input; LNAME, FNAME, SSN, DOB, Addres: Street, Address-Town, Address-Zip&amp;nbsp;&lt;/font&gt;" style="html=1;strokeWidth=2;shape=manualInput;whiteSpace=wrap;rounded=1;size=26;arcSize=11;" parent="WIyWlLk6GJQsqaUBKTNV-1" vertex="1">
          <mxGeometry x="180" y="40" width="240" height="110" as="geometry" />
        </mxCell>
        <mxCell id="fdkzu7bsHedq0IDlACjG-11" style="edgeStyle=orthogonalEdgeStyle;rounded=0;orthogonalLoop=1;jettySize=auto;html=1;fontSize=14;entryX=0;entryY=0.5;entryDx=0;entryDy=0;exitX=0;exitY=0.5;exitDx=0;exitDy=0;exitPerimeter=0;" parent="WIyWlLk6GJQsqaUBKTNV-1" source="fdkzu7bsHedq0IDlACjG-7" target="QR11iQUeeUO_pYaZ8578-2" edge="1">
          <mxGeometry relative="1" as="geometry">
            <mxPoint x="40" y="190" as="targetPoint" />
            <Array as="points">
              <mxPoint x="40" y="335" />
              <mxPoint x="40" y="215" />
            </Array>
          </mxGeometry>
        </mxCell>
        <mxCell id="KnLTkekRMiMTjvVgLZ_X-9" style="edgeStyle=orthogonalEdgeStyle;rounded=0;orthogonalLoop=1;jettySize=auto;html=1;exitX=1;exitY=0.5;exitDx=0;exitDy=0;exitPerimeter=0;entryX=0.5;entryY=0;entryDx=0;entryDy=0;" parent="WIyWlLk6GJQsqaUBKTNV-1" source="fdkzu7bsHedq0IDlACjG-7" target="KnLTkekRMiMTjvVgLZ_X-13" edge="1">
          <mxGeometry relative="1" as="geometry">
            <mxPoint x="140" y="460" as="targetPoint" />
            <Array as="points">
              <mxPoint x="250" y="335" />
              <mxPoint x="250" y="400" />
              <mxPoint x="140" y="400" />
            </Array>
          </mxGeometry>
        </mxCell>
        <mxCell id="fdkzu7bsHedq0IDlACjG-7" value="Data Elements available?" style="strokeWidth=2;html=1;shape=mxgraph.flowchart.decision;whiteSpace=wrap;fontSize=14;" parent="WIyWlLk6GJQsqaUBKTNV-1" vertex="1">
          <mxGeometry x="70" y="285" width="140" height="100" as="geometry" />
        </mxCell>
        <mxCell id="fdkzu7bsHedq0IDlACjG-13" value="YES" style="text;html=1;strokeColor=none;fillColor=none;align=center;verticalAlign=middle;whiteSpace=wrap;rounded=0;fontSize=14;" parent="WIyWlLk6GJQsqaUBKTNV-1" vertex="1">
          <mxGeometry x="210" y="295" width="60" height="30" as="geometry" />
        </mxCell>
        <mxCell id="fdkzu7bsHedq0IDlACjG-16" value="NO" style="text;html=1;strokeColor=none;fillColor=none;align=center;verticalAlign=middle;whiteSpace=wrap;rounded=0;fontSize=14;" parent="WIyWlLk6GJQsqaUBKTNV-1" vertex="1">
          <mxGeometry y="330" width="60" height="30" as="geometry" />
        </mxCell>
        <mxCell id="fdkzu7bsHedq0IDlACjG-17" style="edgeStyle=orthogonalEdgeStyle;rounded=0;orthogonalLoop=1;jettySize=auto;html=1;fontSize=14;" parent="WIyWlLk6GJQsqaUBKTNV-1" source="fdkzu7bsHedq0IDlACjG-2" edge="1">
          <mxGeometry relative="1" as="geometry">
            <mxPoint x="300" y="273" as="targetPoint" />
          </mxGeometry>
        </mxCell>
        <mxCell id="fdkzu7bsHedq0IDlACjG-18" style="edgeStyle=orthogonalEdgeStyle;rounded=0;orthogonalLoop=1;jettySize=auto;html=1;fontSize=14;" parent="WIyWlLk6GJQsqaUBKTNV-1" source="-oaz-7kIbjAqHyaPnMs6-12" edge="1">
          <mxGeometry relative="1" as="geometry">
            <mxPoint x="300" y="299" as="targetPoint" />
          </mxGeometry>
        </mxCell>
        <mxCell id="fdkzu7bsHedq0IDlACjG-19" style="edgeStyle=orthogonalEdgeStyle;rounded=0;orthogonalLoop=1;jettySize=auto;html=1;fontSize=14;" parent="WIyWlLk6GJQsqaUBKTNV-1" source="-oaz-7kIbjAqHyaPnMs6-14" edge="1">
          <mxGeometry relative="1" as="geometry">
            <mxPoint x="300" y="351" as="targetPoint" />
          </mxGeometry>
        </mxCell>
        <mxCell id="fdkzu7bsHedq0IDlACjG-21" value="" style="endArrow=none;html=1;rounded=0;fontSize=14;" parent="WIyWlLk6GJQsqaUBKTNV-1" edge="1">
          <mxGeometry width="50" height="50" relative="1" as="geometry">
            <mxPoint x="300" y="350" as="sourcePoint" />
            <mxPoint x="300" y="250" as="targetPoint" />
          </mxGeometry>
        </mxCell>
        <mxCell id="fdkzu7bsHedq0IDlACjG-22" value="" style="endArrow=classic;html=1;rounded=0;fontSize=14;entryX=0.5;entryY=0;entryDx=0;entryDy=0;entryPerimeter=0;" parent="WIyWlLk6GJQsqaUBKTNV-1" target="fdkzu7bsHedq0IDlACjG-7" edge="1">
          <mxGeometry width="50" height="50" relative="1" as="geometry">
            <mxPoint x="300" y="250" as="sourcePoint" />
            <mxPoint x="430" y="210" as="targetPoint" />
            <Array as="points">
              <mxPoint x="140" y="250" />
            </Array>
          </mxGeometry>
        </mxCell>
        <mxCell id="fdkzu7bsHedq0IDlACjG-32" style="edgeStyle=orthogonalEdgeStyle;rounded=0;orthogonalLoop=1;jettySize=auto;html=1;entryX=0.5;entryY=0;entryDx=0;entryDy=0;fontSize=14;" parent="WIyWlLk6GJQsqaUBKTNV-1" source="fdkzu7bsHedq0IDlACjG-29" target="fdkzu7bsHedq0IDlACjG-30" edge="1">
          <mxGeometry relative="1" as="geometry" />
        </mxCell>
        <mxCell id="fdkzu7bsHedq0IDlACjG-29" value="Security Consent Dialog" style="html=1;strokeWidth=2;shape=manualInput;whiteSpace=wrap;rounded=1;size=26;arcSize=11;fontSize=14;" parent="WIyWlLk6GJQsqaUBKTNV-1" vertex="1">
          <mxGeometry x="535" y="220" width="140" height="80" as="geometry" />
        </mxCell>
        <mxCell id="fdkzu7bsHedq0IDlACjG-36" style="edgeStyle=orthogonalEdgeStyle;rounded=0;orthogonalLoop=1;jettySize=auto;html=1;entryX=0.5;entryY=1;entryDx=0;entryDy=0;fontSize=14;" parent="WIyWlLk6GJQsqaUBKTNV-1" source="fdkzu7bsHedq0IDlACjG-30" target="-oaz-7kIbjAqHyaPnMs6-1" edge="1">
          <mxGeometry relative="1" as="geometry" />
        </mxCell>
        <mxCell id="fdkzu7bsHedq0IDlACjG-30" value="Accepted?" style="rhombus;whiteSpace=wrap;html=1;fontSize=14;" parent="WIyWlLk6GJQsqaUBKTNV-1" vertex="1">
          <mxGeometry x="535" y="330" width="150" height="73" as="geometry" />
        </mxCell>
        <mxCell id="fdkzu7bsHedq0IDlACjG-34" style="edgeStyle=orthogonalEdgeStyle;rounded=0;orthogonalLoop=1;jettySize=auto;html=1;fontSize=14;exitX=0;exitY=0.5;exitDx=0;exitDy=0;entryX=1;entryY=0.5;entryDx=0;entryDy=0;" parent="WIyWlLk6GJQsqaUBKTNV-1" source="fdkzu7bsHedq0IDlACjG-30" target="fdkzu7bsHedq0IDlACjG-3" edge="1">
          <mxGeometry relative="1" as="geometry">
            <mxPoint x="530" y="370" as="sourcePoint" />
            <mxPoint x="430" y="160" as="targetPoint" />
            <Array as="points">
              <mxPoint x="480" y="367" />
              <mxPoint x="480" y="95" />
            </Array>
          </mxGeometry>
        </mxCell>
        <mxCell id="fdkzu7bsHedq0IDlACjG-33" value="YES" style="text;html=1;strokeColor=none;fillColor=none;align=center;verticalAlign=middle;whiteSpace=wrap;rounded=0;fontSize=14;" parent="WIyWlLk6GJQsqaUBKTNV-1" vertex="1">
          <mxGeometry x="500" y="320" width="60" height="40" as="geometry" />
        </mxCell>
        <mxCell id="fdkzu7bsHedq0IDlACjG-35" value="NO" style="text;html=1;strokeColor=none;fillColor=none;align=center;verticalAlign=middle;whiteSpace=wrap;rounded=0;fontSize=14;" parent="WIyWlLk6GJQsqaUBKTNV-1" vertex="1">
          <mxGeometry x="650" y="325" width="60" height="30" as="geometry" />
        </mxCell>
        <mxCell id="WIyWlLk6GJQsqaUBKTNV-6" value="Success?&amp;nbsp;" style="rhombus;whiteSpace=wrap;html=1;shadow=0;fontFamily=Helvetica;fontSize=12;align=center;strokeWidth=1;spacing=6;spacingTop=-4;" parent="WIyWlLk6GJQsqaUBKTNV-1" vertex="1">
          <mxGeometry x="515" y="110" width="100" height="80" as="geometry" />
        </mxCell>
        <mxCell id="KnLTkekRMiMTjvVgLZ_X-13" value="Query: ClientRestricted" style="swimlane;fontStyle=0;childLayout=stackLayout;horizontal=1;startSize=30;horizontalStack=0;resizeParent=1;resizeParentMax=0;resizeLast=0;collapsible=1;marginBottom=0;" parent="WIyWlLk6GJQsqaUBKTNV-1" vertex="1">
          <mxGeometry x="61.25" y="450" width="157.5" height="90" as="geometry" />
        </mxCell>
        <mxCell id="KnLTkekRMiMTjvVgLZ_X-14" value="Name: Last, First" style="text;strokeColor=none;fillColor=none;align=left;verticalAlign=middle;spacingLeft=4;spacingRight=4;overflow=hidden;points=[[0,0.5],[1,0.5]];portConstraint=eastwest;rotatable=0;" parent="KnLTkekRMiMTjvVgLZ_X-13" vertex="1">
          <mxGeometry y="30" width="157.5" height="20" as="geometry" />
        </mxCell>
        <mxCell id="KnLTkekRMiMTjvVgLZ_X-15" value="DOB" style="text;strokeColor=none;fillColor=none;align=left;verticalAlign=middle;spacingLeft=4;spacingRight=4;overflow=hidden;points=[[0,0.5],[1,0.5]];portConstraint=eastwest;rotatable=0;" parent="KnLTkekRMiMTjvVgLZ_X-13" vertex="1">
          <mxGeometry y="50" width="157.5" height="20" as="geometry" />
        </mxCell>
        <mxCell id="KnLTkekRMiMTjvVgLZ_X-16" value="Record Count &gt; 0 ?" style="text;strokeColor=none;fillColor=none;align=left;verticalAlign=middle;spacingLeft=4;spacingRight=4;overflow=hidden;points=[[0,0.5],[1,0.5]];portConstraint=eastwest;rotatable=0;" parent="KnLTkekRMiMTjvVgLZ_X-13" vertex="1">
          <mxGeometry y="70" width="157.5" height="20" as="geometry" />
        </mxCell>
        <mxCell id="KnLTkekRMiMTjvVgLZ_X-26" style="edgeStyle=orthogonalEdgeStyle;rounded=0;orthogonalLoop=1;jettySize=auto;html=1;exitX=1;exitY=0.5;exitDx=0;exitDy=0;entryX=1;entryY=0.5;entryDx=0;entryDy=0;" parent="KnLTkekRMiMTjvVgLZ_X-13" source="KnLTkekRMiMTjvVgLZ_X-15" target="KnLTkekRMiMTjvVgLZ_X-15" edge="1">
          <mxGeometry relative="1" as="geometry" />
        </mxCell>
        <mxCell id="KnLTkekRMiMTjvVgLZ_X-27" value="YES" style="text;html=1;strokeColor=none;fillColor=none;align=center;verticalAlign=middle;whiteSpace=wrap;rounded=0;fontSize=14;" parent="WIyWlLk6GJQsqaUBKTNV-1" vertex="1">
          <mxGeometry x="20" y="480" width="40" height="20" as="geometry" />
        </mxCell>
        <mxCell id="KnLTkekRMiMTjvVgLZ_X-32" style="edgeStyle=orthogonalEdgeStyle;rounded=0;orthogonalLoop=1;jettySize=auto;html=1;entryX=0.5;entryY=0;entryDx=0;entryDy=0;" parent="WIyWlLk6GJQsqaUBKTNV-1" source="KnLTkekRMiMTjvVgLZ_X-15" edge="1">
          <mxGeometry relative="1" as="geometry">
            <mxPoint x="390" y="531" as="targetPoint" />
            <Array as="points">
              <mxPoint x="390" y="510" />
            </Array>
          </mxGeometry>
        </mxCell>
        <mxCell id="y3-fxDrOMvLgRdDhGUXK-0" value="Display report" style="swimlane;" parent="WIyWlLk6GJQsqaUBKTNV-1" vertex="1">
          <mxGeometry x="31.25" y="840" width="200" height="90" as="geometry">
            <mxRectangle x="31.25" y="840" width="120" height="30" as="alternateBounds" />
          </mxGeometry>
        </mxCell>
        <mxCell id="y3-fxDrOMvLgRdDhGUXK-1" value="SQL: INFORM: exec sp_ss_hos_ClientData @EMRID=&#39;xxxxxx&#39;" style="rounded=1;whiteSpace=wrap;html=1;" parent="y3-fxDrOMvLgRdDhGUXK-0" vertex="1">
          <mxGeometry x="25" y="30" width="155" height="50" as="geometry" />
        </mxCell>
        <mxCell id="y3-fxDrOMvLgRdDhGUXK-16" style="edgeStyle=orthogonalEdgeStyle;rounded=0;orthogonalLoop=1;jettySize=auto;html=1;entryX=0.5;entryY=0;entryDx=0;entryDy=0;" parent="WIyWlLk6GJQsqaUBKTNV-1" source="y3-fxDrOMvLgRdDhGUXK-2" target="y3-fxDrOMvLgRdDhGUXK-14" edge="1">
          <mxGeometry relative="1" as="geometry">
            <Array as="points">
              <mxPoint x="40" y="625" />
              <mxPoint x="40" y="680" />
              <mxPoint x="130" y="680" />
            </Array>
          </mxGeometry>
        </mxCell>
        <mxCell id="y3-fxDrOMvLgRdDhGUXK-2" value="Record, Count = 1?" style="rhombus;whiteSpace=wrap;html=1;" parent="WIyWlLk6GJQsqaUBKTNV-1" vertex="1">
          <mxGeometry x="61.25" y="585" width="140" height="80" as="geometry" />
        </mxCell>
        <mxCell id="y3-fxDrOMvLgRdDhGUXK-4" style="edgeStyle=orthogonalEdgeStyle;rounded=0;orthogonalLoop=1;jettySize=auto;html=1;entryX=0.5;entryY=0;entryDx=0;entryDy=0;" parent="WIyWlLk6GJQsqaUBKTNV-1" source="KnLTkekRMiMTjvVgLZ_X-15" target="y3-fxDrOMvLgRdDhGUXK-2" edge="1">
          <mxGeometry relative="1" as="geometry">
            <mxPoint x="90" y="580" as="targetPoint" />
            <Array as="points">
              <mxPoint x="40" y="510" />
              <mxPoint x="40" y="553" />
              <mxPoint x="131" y="553" />
            </Array>
          </mxGeometry>
        </mxCell>
        <mxCell id="y3-fxDrOMvLgRdDhGUXK-5" value="YES" style="text;html=1;strokeColor=none;fillColor=none;align=center;verticalAlign=middle;whiteSpace=wrap;rounded=0;fontSize=14;" parent="WIyWlLk6GJQsqaUBKTNV-1" vertex="1">
          <mxGeometry x="22" y="599" width="40" height="25" as="geometry" />
        </mxCell>
        <mxCell id="y3-fxDrOMvLgRdDhGUXK-8" value="NO" style="text;html=1;strokeColor=none;fillColor=none;align=center;verticalAlign=middle;whiteSpace=wrap;rounded=0;fontSize=14;" parent="WIyWlLk6GJQsqaUBKTNV-1" vertex="1">
          <mxGeometry x="221" y="479" width="40" height="20" as="geometry" />
        </mxCell>
        <mxCell id="y3-fxDrOMvLgRdDhGUXK-10" value="NO" style="text;html=1;strokeColor=none;fillColor=none;align=center;verticalAlign=middle;whiteSpace=wrap;rounded=0;fontSize=14;" parent="WIyWlLk6GJQsqaUBKTNV-1" vertex="1">
          <mxGeometry x="194.25" y="603" width="40" height="20" as="geometry" />
        </mxCell>
        <mxCell id="y3-fxDrOMvLgRdDhGUXK-19" style="edgeStyle=orthogonalEdgeStyle;rounded=0;orthogonalLoop=1;jettySize=auto;html=1;exitX=0;exitY=0.5;exitDx=0;exitDy=0;" parent="WIyWlLk6GJQsqaUBKTNV-1" source="y3-fxDrOMvLgRdDhGUXK-14" edge="1">
          <mxGeometry relative="1" as="geometry">
            <mxPoint x="130" y="840" as="targetPoint" />
            <Array as="points">
              <mxPoint x="40" y="740" />
              <mxPoint x="40" y="810" />
              <mxPoint x="130" y="810" />
            </Array>
          </mxGeometry>
        </mxCell>
        <mxCell id="y3-fxDrOMvLgRdDhGUXK-14" value="Is Match valid?" style="shape=hexagon;perimeter=hexagonPerimeter2;whiteSpace=wrap;html=1;fixedSize=1;" parent="WIyWlLk6GJQsqaUBKTNV-1" vertex="1">
          <mxGeometry x="70" y="700" width="120" height="80" as="geometry" />
        </mxCell>
        <mxCell id="y3-fxDrOMvLgRdDhGUXK-17" value="YES" style="text;html=1;strokeColor=none;fillColor=none;align=center;verticalAlign=middle;whiteSpace=wrap;rounded=0;fontSize=14;" parent="WIyWlLk6GJQsqaUBKTNV-1" vertex="1">
          <mxGeometry x="37" y="718" width="40" height="20" as="geometry" />
        </mxCell>
        <mxCell id="y3-fxDrOMvLgRdDhGUXK-20" value="NO" style="text;html=1;strokeColor=none;fillColor=none;align=center;verticalAlign=middle;whiteSpace=wrap;rounded=0;fontSize=14;" parent="WIyWlLk6GJQsqaUBKTNV-1" vertex="1">
          <mxGeometry x="191" y="720" width="29" height="20" as="geometry" />
        </mxCell>
        <mxCell id="y3-fxDrOMvLgRdDhGUXK-25" value="Display absent data message" style="shape=parallelogram;perimeter=parallelogramPerimeter;whiteSpace=wrap;html=1;fixedSize=1;" parent="WIyWlLk6GJQsqaUBKTNV-1" vertex="1">
          <mxGeometry x="90" y="190" width="140" height="50" as="geometry" />
        </mxCell>
        <mxCell id="y3-fxDrOMvLgRdDhGUXK-26" style="edgeStyle=orthogonalEdgeStyle;rounded=0;orthogonalLoop=1;jettySize=auto;html=1;fontSize=14;entryX=0;entryY=0.5;entryDx=0;entryDy=0;exitX=0;exitY=0.5;exitDx=0;exitDy=0;exitPerimeter=0;" parent="WIyWlLk6GJQsqaUBKTNV-1" source="y3-fxDrOMvLgRdDhGUXK-27" target="y3-fxDrOMvLgRdDhGUXK-25" edge="1">
          <mxGeometry relative="1" as="geometry">
            <mxPoint x="40" y="190" as="targetPoint" />
            <Array as="points">
              <mxPoint x="40" y="335" />
              <mxPoint x="40" y="215" />
            </Array>
          </mxGeometry>
        </mxCell>
        <mxCell id="y3-fxDrOMvLgRdDhGUXK-27" value="Data Elements available?" style="strokeWidth=2;html=1;shape=mxgraph.flowchart.decision;whiteSpace=wrap;fontSize=14;" parent="WIyWlLk6GJQsqaUBKTNV-1" vertex="1">
          <mxGeometry x="70" y="285" width="140" height="100" as="geometry" />
        </mxCell>
        <mxCell id="y3-fxDrOMvLgRdDhGUXK-30" value="Requery sequence" style="swimlane;" parent="WIyWlLk6GJQsqaUBKTNV-1" vertex="1">
          <mxGeometry x="290" y="665" width="200" height="200" as="geometry" />
        </mxCell>
        <mxCell id="y3-fxDrOMvLgRdDhGUXK-31" value="Try Name: Last, First, reversed." style="shape=hexagon;perimeter=hexagonPerimeter2;whiteSpace=wrap;html=1;fixedSize=1;" parent="y3-fxDrOMvLgRdDhGUXK-30" vertex="1">
          <mxGeometry x="20" y="35" width="160" height="49" as="geometry" />
        </mxCell>
      </root>
    </mxGraphModel>
  </diagram>
</mxfile>
